<svg width="100" height="22" viewBox="0 0 100 22" fill="none" xmlns="http://www.w3.org/2000/svg">
<g clip-path="url(#clip0_15687_7926)">
<path d="M32.5522 5.68375C32.5522 4.56084 31.6595 3.67007 30.5728 3.67007H28.555V17.8423H30.5728C31.6595 17.8423 32.5522 16.9519 32.5522 15.8676V5.68375ZM35.0357 5.68375V15.8676C35.0357 18.3459 33.0566 20.3594 30.5728 20.3594H27.3132C26.6534 20.3594 26.0713 19.7785 26.0713 19.1202V2.43097C26.0713 1.73408 26.6534 1.19184 27.3132 1.19184H30.5728C33.0566 1.19184 35.0357 3.20544 35.0357 5.68375Z" fill="#40BFB3"/>
<path d="M40.7406 3.67007V9.51721H44.1168C44.4662 9.51721 44.7378 9.78823 44.7378 10.1366V11.3759C44.7378 11.7243 44.4662 11.9954 44.1168 11.9954H40.7406V17.8812H44.1168C44.4662 17.8812 44.7378 18.1523 44.7378 18.5007V19.7398C44.7378 20.0883 44.4662 20.3594 44.1168 20.3594H39.4988C38.8003 20.3594 38.2568 19.7785 38.2568 19.1202V2.43097C38.2568 1.73408 38.8003 1.19184 39.4988 1.19184H44.1168C44.4662 1.19184 44.7378 1.46296 44.7378 1.81145V3.05055C44.7378 3.39911 44.4662 3.67007 44.1168 3.67007H40.7406Z" fill="#40BFB3"/>
<path d="M52.8493 6.96146V5.64499C52.8493 4.56084 51.9568 3.67007 50.8701 3.67007C49.7834 3.67007 48.8909 4.56084 48.8909 5.64499C48.8909 6.14828 48.8909 6.14828 49.0076 6.30325L54.4016 13.4283C55.333 14.6673 55.333 14.6673 55.333 15.9063C55.333 18.3459 53.315 20.3594 50.8701 20.3594C48.4253 20.3594 46.4072 18.3459 46.4072 15.9063V14.5898C46.4072 14.2412 46.6791 13.9703 47.0282 13.9703H48.27C48.6194 13.9703 48.8909 14.2412 48.8909 14.5898V15.9063C48.8909 16.9905 49.7834 17.8812 50.8701 17.8812C51.9568 17.8812 52.8493 16.9905 52.8493 15.9063C52.8493 15.4029 52.8493 15.4029 52.7329 15.248L47.3386 8.1232C46.4072 6.88408 46.4072 6.88408 46.4072 5.64499C46.4072 3.20544 48.4253 1.19184 50.8701 1.19184C53.315 1.19184 55.333 3.20544 55.333 5.64499V6.96146C55.333 7.31009 55.0613 7.58098 54.7122 7.58098H53.4703C53.121 7.58098 52.8493 7.31009 52.8493 6.96146Z" fill="#40BFB3"/>
<path d="M63.8314 1.81145V3.05055C63.8314 3.39911 63.5599 3.67007 63.2108 3.67007H61.4643V19.7398C61.4643 20.0495 61.1926 20.3594 60.8435 20.3594H59.6018C59.2523 20.3594 58.9806 20.0495 58.9806 19.7398V3.67007H57.2345C56.8852 3.67007 56.6133 3.39911 56.6133 3.05055V1.81145C56.6133 1.46296 56.8852 1.19184 57.2345 1.19184H63.2108C63.5599 1.19184 63.8314 1.46296 63.8314 1.81145Z" fill="#40BFB3"/>
<path d="M73.145 5.68375C73.145 4.59945 72.2523 3.70884 71.1656 3.70884C70.0403 3.70884 69.1478 4.59945 69.1478 5.68375V9.5559H73.145V5.68375ZM75.6287 5.68375V19.7398C75.6287 20.0883 75.3572 20.3594 75.0075 20.3594H73.7658C73.4165 20.3594 73.145 20.0883 73.145 19.7398V12.034H69.1478V19.7398C69.1478 20.0883 68.8763 20.3594 68.5266 20.3594H67.285C66.9356 20.3594 66.6641 20.0883 66.6641 19.7398V5.68375C66.6641 3.24421 68.6819 1.23063 71.1656 1.23063C73.6107 1.23063 75.6287 3.24421 75.6287 5.68375Z" fill="#40BFB3"/>
<path d="M87.0388 6.80664L84.7881 10.8338L87.0388 14.8607C87.5433 15.5579 87.8148 16.4097 87.8148 17.3389V19.7398C87.8148 20.0495 87.5433 20.3594 87.194 20.3594H85.9523C85.6028 20.3594 85.3313 20.0495 85.3313 19.7398V17.3389C85.3313 17.1067 85.2924 16.8744 85.2149 16.6808L83.3135 13.3507L81.4505 16.6808C81.3732 16.8744 81.3343 17.1067 81.3343 17.3389V19.7398C81.3343 20.0495 81.0626 20.3594 80.7131 20.3594H79.4714C79.1221 20.3594 78.8506 20.0495 78.8506 19.7398V17.3389C78.8506 16.4097 79.1221 15.5579 79.6267 14.8607L81.8775 10.8338L79.5878 6.80664C79.1221 6.10967 78.8506 5.25774 78.8506 4.32843V1.81145C78.8506 1.46296 79.1221 1.19184 79.4714 1.19184H80.7131C81.0626 1.19184 81.3343 1.46296 81.3343 1.81145V4.32843C81.3343 4.56084 81.3732 4.75443 81.4505 4.98662L83.3135 8.27809L85.2149 4.98662C85.2924 4.75443 85.3313 4.56084 85.3313 4.32843V1.81145C85.3313 1.46296 85.6028 1.19184 85.9523 1.19184H87.194C87.5433 1.19184 87.8148 1.46296 87.8148 1.81145V4.32843C87.8148 5.25774 87.5433 6.10967 87.0388 6.80664Z" fill="#40BFB3"/>
<path d="M97.5169 5.68375C97.5169 4.59945 96.6246 3.70884 95.5377 3.70884C94.4123 3.70884 93.5199 4.59945 93.5199 5.68375V9.5559H97.5169V5.68375ZM100.001 5.68375V19.7398C100.001 20.0883 99.7291 20.3594 99.3798 20.3594H98.138C97.7886 20.3594 97.5169 20.0883 97.5169 19.7398V12.034H93.5199V19.7398C93.5199 20.0883 93.2483 20.3594 92.8989 20.3594H91.6571C91.3079 20.3594 91.0361 20.0883 91.0361 19.7398V5.68375C91.0361 3.24421 93.054 1.23063 95.5377 1.23063C97.9827 1.23063 100.001 3.24421 100.001 5.68375Z" fill="#40BFB3"/>
<path d="M19.7589 8.68458C18.6024 8.68458 17.665 9.61995 17.665 10.7738C17.665 11.9279 18.6024 12.8633 19.7589 12.8633C20.9152 12.8633 21.8527 11.9279 21.8527 10.7738C21.8527 9.61995 20.9152 8.68458 19.7589 8.68458Z" fill="#681164"/>
<path d="M15.4542 0.569383C14.2979 0.569383 13.3604 1.50501 13.3604 2.65875C13.3604 3.81266 14.2979 4.74805 15.4542 4.74805C16.6107 4.74805 17.5481 3.81266 17.5481 2.65875C17.5481 1.50501 16.6107 0.569383 15.4542 0.569383Z" fill="#681164"/>
<path d="M14.782 6.83485C14.1418 7.20532 13.9241 8.02327 14.2955 8.66186C14.6667 9.30044 15.4864 9.51795 16.1262 9.1474C16.7663 8.77699 16.9844 7.95904 16.6129 7.32038C16.2418 6.68179 15.4221 6.46436 14.782 6.83485Z" fill="#681164"/>
<path d="M19.867 6.3408C20.248 6.11485 20.3737 5.62363 20.1474 5.24313C19.921 4.86282 19.4285 4.73746 19.0473 4.96341C18.6661 5.18915 18.5406 5.68069 18.7669 6.06108C18.9933 6.44134 19.4857 6.56654 19.867 6.3408Z" fill="#681164"/>
<path d="M10.2546 4.2899C9.61453 4.66053 9.39671 5.47839 9.76809 6.11705C10.1393 6.75557 10.959 6.97292 11.599 6.60258C12.239 6.23219 12.4568 5.41409 12.0856 4.77543C11.7144 4.13699 10.8945 3.91957 10.2546 4.2899Z" fill="#681164"/>
<path d="M11.3358 1.48918C11.717 1.26335 11.8424 0.771907 11.6162 0.39171C11.3898 0.0111189 10.8972 -0.114103 10.5162 0.111731C10.1349 0.337565 10.0093 0.829006 10.2357 1.2094C10.4621 1.58979 10.9547 1.71502 11.3358 1.48918Z" fill="#681164"/>
<path d="M6.39855 0.569383C5.24229 0.569383 4.30469 1.50501 4.30469 2.65875C4.30469 3.81266 5.24229 4.74805 6.39855 4.74805C7.55515 4.74805 8.4925 3.81266 8.4925 2.65875C8.4925 1.50501 7.55515 0.569383 6.39855 0.569383Z" fill="#40BFB3"/>
<path d="M5.72634 6.83485C5.08626 7.20532 4.86843 8.02327 5.23966 8.66186C5.61094 9.30044 6.43061 9.51795 7.07069 9.1474C7.71075 8.77699 7.92858 7.95904 7.55737 7.32038C7.18614 6.68179 6.3664 6.46436 5.72634 6.83485Z" fill="#40BFB3"/>
<path d="M15.4542 16.802C14.2979 16.802 13.3604 17.7374 13.3604 18.8913C13.3604 20.0452 14.2979 20.9805 15.4542 20.9805C16.6107 20.9805 17.5481 20.0452 17.5481 18.8913C17.5481 17.7374 16.6107 16.802 15.4542 16.802Z" fill="#40BFB3"/>
<path d="M16.1262 14.7138C16.7663 14.3435 16.9844 13.5256 16.6129 12.8868C16.2418 12.2483 15.4221 12.031 14.782 12.4013C14.1418 12.7716 13.9241 13.5898 14.2955 14.2283C14.6667 14.8669 15.4864 15.0843 16.1262 14.7138Z" fill="#40BFB3"/>
<path d="M1.98582 4.96341C1.60459 5.18915 1.4791 5.68069 1.70533 6.06108C1.93179 6.44134 2.42433 6.56654 2.80548 6.3408C3.18665 6.11485 3.31221 5.62363 3.08582 5.24313C2.85953 4.86282 2.36699 4.73746 1.98582 4.96341Z" fill="#40BFB3"/>
<path d="M20.1474 15.4893C19.921 15.1087 19.4285 14.9836 19.0473 15.2093C18.6661 15.4352 18.5406 15.9267 18.7669 16.307C18.9933 16.6873 19.4857 16.8127 19.867 16.5869C20.248 16.361 20.3737 15.8694 20.1474 15.4893Z" fill="#40BFB3"/>
<path d="M10.9272 8.73449C9.79811 8.73449 8.88257 9.64781 8.88257 10.7743C8.88257 11.9009 9.79811 12.8145 10.9272 12.8145C12.0562 12.8145 12.9715 11.9009 12.9715 10.7743C12.9715 9.64781 12.0562 8.73449 10.9272 8.73449Z" fill="#40BFB3"/>
<path d="M2.09484 8.68458C0.938344 8.68458 0.000976562 9.61995 0.000976562 10.7738C0.000976562 11.9279 0.938344 12.8633 2.09484 12.8633C3.25136 12.8633 4.18873 11.9279 4.18873 10.7738C4.18873 9.61995 3.25136 8.68458 2.09484 8.68458Z" fill="#40BFB3"/>
<path d="M6.39855 16.802C5.24229 16.802 4.30469 17.7374 4.30469 18.8913C4.30469 20.0452 5.24229 20.9805 6.39855 20.9805C7.55515 20.9805 8.4925 20.0452 8.4925 18.8913C8.4925 17.7374 7.55515 16.802 6.39855 16.802Z" fill="#40BFB3"/>
<path d="M7.07069 14.7138C7.71075 14.3435 7.92858 13.5256 7.55737 12.8868C7.18614 12.2483 6.3664 12.031 5.72634 12.4013C5.08626 12.7716 4.86843 13.5898 5.23966 14.2283C5.61094 14.8669 6.43061 15.0843 7.07069 14.7138Z" fill="#40BFB3"/>
<path d="M1.98582 15.2093C1.60459 15.4352 1.4791 15.9267 1.70533 16.307C1.93179 16.6873 2.42433 16.8127 2.80548 16.5869C3.18665 16.361 3.31221 15.8694 3.08582 15.4893C2.85953 15.1087 2.36699 14.9836 1.98582 15.2093Z" fill="#40BFB3"/>
<path d="M12.0856 15.4337C11.7144 14.7952 10.8945 14.5777 10.2546 14.9482C9.61453 15.3186 9.39671 16.1366 9.76809 16.7751C10.1393 17.4137 10.959 17.6313 11.599 17.2606C12.239 16.8903 12.4568 16.0723 12.0856 15.4337Z" fill="#40BFB3"/>
<path d="M10.5162 20.0609C10.1349 20.287 10.0093 20.7783 10.2357 21.1588C10.4621 21.5389 10.9547 21.6643 11.3358 21.4384C11.717 21.2126 11.8424 20.7211 11.6162 20.3407C11.3898 19.9606 10.8972 19.8354 10.5162 20.0609Z" fill="#40BFB3"/>
</g>
<defs>
<clipPath id="clip0_15687_7926">
<rect width="100" height="21.5517" fill="white"/>
</clipPath>
</defs>
</svg>
